<svg xmlns="http://www.w3.org/2000/svg" width="155" height="213" viewBox="0 0 155 213">
    <g fill="#FF2626" fill-rule="evenodd">
        <path d="M61.358 209.417c48.422 15.733 53.832-27.53 69.27-75.042 15.438-47.513 46.902-115.38-1.52-131.113C80.684-12.47 20.386 48.462 4.948 95.976c-15.438 47.513 7.987 97.707 56.41 113.44z" opacity=".3"/>
        <path d="M63.406 176.41c30.225 9.82 30.745-19.532 40.327-49.022 9.582-29.49 45.062-82.005 14.837-91.826-30.225-9.82-74.858 39.721-84.44 69.21-9.582 29.49-.949 61.816 29.276 71.637z" opacity=".4"/>
        <path d="M73.742 152.967c15.846 5.149 14.386-10.198 19.445-25.77 5.06-15.57 29.494-62.423 13.648-67.572C90.989 54.476 59.27 99.879 54.21 115.45c-5.06 15.572 3.685 32.368 19.53 37.517z" opacity=".5"/>
        <path d="M73.996 136.448c8.214 2.67 7.379-5.044 9.91-12.836 2.532-7.792 20.261-43.603 12.047-46.271-8.214-2.67-29.714 32.375-32.246 40.167-2.532 7.791 2.075 16.271 10.29 18.94z"/>
    </g>
</svg>
