<svg xmlns="http://www.w3.org/2000/svg" width="140" height="120" viewBox="0 0 140 120">
    <g fill="#FF8226" fill-rule="evenodd">
        <path d="M134.833 109.19c17.7-21.094-16.714-40-55.081-72.193C41.385 4.803 28.039-10.9 10.34 10.194-7.359 31.287-3.374 54.744 34.993 86.938c38.368 32.194 82.141 43.344 99.84 22.251z" opacity=".3"/>
        <path d="M107.3 94.11c10.99-13.096-16.903-35.111-40.383-54.814C43.436 19.593 33.258 9.664 22.269 22.761c-10.989 13.096-.862 39.685 22.618 59.387 23.48 19.703 51.424 25.058 62.413 11.962z" opacity=".4"/>
        <path d="M89.081 83.754c6.525-7.776-2.722-22.528-18.375-35.663-15.654-13.135-31.787-19.68-38.312-11.903-6.216 7.407 1.914 30.368 13.897 41 15.136 13.429 36.265 14.342 42.79 6.566z" opacity=".6"/>
        <path d="M73.703 77.957c2.94-3.502-3.088-11.324-12.202-18.972-9.115-7.647-14.265-17.937-17.204-14.435-2.939 3.503-1.532 18.254 7.582 25.902 9.114 7.647 18.885 11.008 21.824 7.505z"/>
    </g>
</svg>
